<?xml version="1.0" standalone="no"?>
<!DOCTYPE svg PUBLIC "-//W3C//DTD SVG 20010904//EN"
 "http://www.w3.org/TR/2001/REC-SVG-20010904/DTD/svg10.dtd">
<svg version="1.0" xmlns="http://www.w3.org/2000/svg"
 width="450.000000pt" height="450.000000pt" viewBox="0 0 450.000000 450.000000"
 preserveAspectRatio="xMidYMid meet">

<g transform="translate(0.000000,450.000000) scale(0.100000,-0.100000)"
fill="#000000" stroke="none">
<path d="M1956 4145 c-51 -20 -102 -59 -129 -100 -20 -31 -25 -33 -90 -38 -60
-4 -76 -9 -125 -44 -40 -29 -65 -56 -87 -96 -28 -53 -33 -57 -66 -57 -53 0
-122 -27 -167 -66 -49 -42 -92 -124 -92 -176 0 -33 -5 -41 -31 -56 -94 -51
-149 -130 -156 -226 -8 -91 16 -155 80 -220 l51 -51 -3 -78 c-3 -67 0 -85 24
-132 14 -31 44 -70 65 -87 l38 -32 -39 -28 c-21 -15 -41 -38 -44 -51 -5 -18
-18 -26 -55 -36 -40 -10 -49 -16 -52 -39 -6 -42 6 -76 29 -87 24 -10 25 -14
67 -293 l23 -153 -21 -11 c-28 -14 -56 -49 -56 -70 0 -15 -10 -18 -59 -18
-119 0 -174 -74 -217 -297 -2 -12 -13 -25 -24 -28 -11 -4 -28 -17 -36 -31 -15
-22 -15 -26 1 -50 9 -15 25 -29 36 -31 20 -6 24 -15 34 -83 10 -63 42 -145 70
-179 l24 -28 -109 -205 c-115 -218 -194 -352 -260 -439 -22 -29 -40 -57 -40
-61 0 -5 91 -7 203 -6 l202 3 5 70 5 70 42 3 41 3 11 -51 c14 -63 23 -81 69
-132 97 -107 269 -118 380 -23 47 40 92 125 92 171 l0 32 61 4 c34 1 65 1 69
-2 4 -3 11 -21 15 -40 45 -212 293 -301 453 -164 47 40 92 124 92 170 0 18 4
34 10 36 5 2 38 2 73 0 63 -3 64 -4 65 -32 1 -50 43 -129 89 -170 59 -51 128
-74 207 -68 126 11 224 99 244 221 l7 42 77 3 77 3 19 -43 c68 -150 212 -236
377 -226 136 9 262 94 316 211 13 29 24 53 25 55 1 2 15 4 30 6 49 5 58 49 58
281 1 226 -8 281 -49 291 l-25 6 0 569 c0 555 0 569 19 569 27 0 61 46 61 82
0 19 -10 40 -29 59 l-29 29 -522 0 -522 0 -29 -29 c-46 -46 -37 -106 21 -136
l30 -16 0 -209 0 -210 -170 0 -170 0 0 84 c0 62 4 87 15 96 22 18 19 73 -6 96
-17 16 -34 18 -97 16 -53 -2 -82 -8 -94 -19 -22 -20 -24 -76 -3 -93 11 -9 15
-34 15 -96 l0 -84 -115 0 -115 0 0 79 c0 57 5 88 17 109 35 61 -9 112 -98 112
-69 0 -106 -16 -118 -52 -9 -26 -8 -37 9 -65 15 -26 20 -52 20 -109 l0 -74
-130 0 -130 0 -14 35 c-8 19 -26 40 -40 47 -15 6 -26 18 -26 27 0 9 14 109 32
224 20 132 36 207 43 207 25 0 46 38 43 77 -3 36 -6 39 -51 53 -36 12 -52 23
-63 46 -8 16 -28 38 -45 48 l-30 18 49 52 c27 28 54 67 61 87 8 26 20 38 46
47 18 7 56 38 84 68 28 30 55 53 60 50 5 -3 33 -1 62 4 62 12 142 61 166 101
16 27 21 29 83 29 47 0 79 7 116 24 53 25 119 85 130 118 4 15 12 18 27 14
163 -48 320 35 359 189 7 31 26 65 49 91 101 113 90 294 -23 389 -47 40 -106
65 -156 65 -39 0 -48 5 -100 58 -42 44 -71 63 -110 77 -67 22 -152 17 -211
-12 l-43 -21 -35 20 c-46 27 -161 34 -217 13z m1552 -2296 l-3 -391 -33 -29
-32 -29 -176 0 c-182 0 -204 4 -236 44 -16 19 -18 55 -18 376 0 322 2 357 18
376 33 41 50 43 270 44 l213 0 -3 -391z m228 357 l34 -34 0 -182 0 -182 -34
-34 c-31 -31 -39 -34 -95 -34 l-60 0 -3 250 -3 250 64 0 c58 0 65 -2 97 -34z"/>
</g>
</svg>
